<?xml version="1.0" standalone="no"?>
<!DOCTYPE svg PUBLIC "-//W3C//DTD SVG 20010904//EN"
 "http://www.w3.org/TR/2001/REC-SVG-20010904/DTD/svg10.dtd">
<svg version="1.0" xmlns="http://www.w3.org/2000/svg"
 width="260.000000pt" height="260.000000pt" viewBox="0 0 260.000000 260.000000"
 preserveAspectRatio="xMidYMid meet">
<metadata>
Created by potrace 1.14, written by Peter Selinger 2001-2017
</metadata>
<g transform="translate(0.000000,260.000000) scale(0.100000,-0.100000)"
fill="#000000" stroke="none">
<path d="M920 2100 c-16 -10 -28 -111 -29 -255 -1 -60 -7 -94 -25 -135 -74
-173 -132 -303 -162 -363 -40 -78 -43 -118 -12 -147 46 -42 114 -14 137 58 38
115 476 592 543 592 43 0 -1 -102 -105 -242 -106 -144 -181 -264 -229 -365
-26 -56 -48 -108 -48 -116 0 -8 -13 -39 -30 -70 -16 -31 -30 -61 -30 -67 0
-17 22 -11 47 12 l23 21 0 -87 c0 -110 25 -164 102 -226 99 -79 132 -93 225
-98 149 -8 272 32 391 128 51 41 142 159 142 184 0 6 -20 -19 -44 -54 -53 -79
-113 -131 -199 -169 -95 -43 -151 -52 -247 -41 -63 7 -93 16 -133 41 -75 45
-196 139 -207 160 -12 22 -13 149 -2 149 5 0 17 -9 28 -21 31 -34 70 -49 129
-49 l56 0 -3 -61 c-3 -68 12 -89 61 -89 31 1 50 11 124 70 69 55 88 91 61 121
-14 16 -26 19 -49 14 -77 -16 -105 -17 -106 -4 -8 107 -13 219 -9 219 3 0 39
-18 80 -40 100 -53 155 -55 187 -7 45 65 54 216 19 286 -17 32 -80 71 -115 71
-27 0 -312 -224 -401 -315 -40 -42 -75 -73 -78 -70 -3 3 12 43 32 89 40 89
110 200 205 326 119 157 158 224 175 302 7 33 -14 48 -69 48 -45 0 -100 -35
-255 -164 -63 -52 -116 -94 -117 -92 -2 1 2 17 8 34 16 47 8 394 -10 415 -15
19 -38 21 -61 7z m651 -666 c21 -22 24 -37 27 -112 3 -75 0 -93 -20 -132 -21
-41 -27 -45 -63 -48 -31 -2 -58 7 -119 41 -68 36 -81 47 -89 76 -7 28 -5 36
13 48 12 8 58 46 103 83 45 38 91 69 103 69 11 1 31 -11 45 -25z m-316 -311
c-4 -71 -8 -134 -10 -140 -3 -9 -25 -13 -65 -13 -58 0 -99 18 -159 67 -12 9
208 213 230 213 6 0 8 -45 4 -127z"/>
<path d="M1861 994 c0 -11 3 -14 6 -6 3 7 2 16 -1 19 -3 4 -6 -2 -5 -13z"/>
</g>
</svg>
